<svg xmlns="http://www.w3.org/2000/svg" xmlns:xlink="http://www.w3.org/1999/xlink" version="1.1" style="enable-background:new 0 0 512 512;" xml:space="preserve" width="512" height="512"><rect id="backgroundrect" width="100%" height="100%" x="0" y="0" fill="none" stroke="none"/>
















<g class="currentLayer" style=""><title>Layer 1</title><g id="svg_1" class="selected" fill="#ffffff" fill-opacity="1">
	<g id="svg_2" fill="#ffffff" fill-opacity="1">
		<path d="M503.467,477.867h-8.533v-8.533c0-4.719-3.814-8.533-8.533-8.533s-8.533,3.814-8.533,8.533v8.533h-25.6v-8.533    c0-4.719-3.814-8.533-8.533-8.533c-4.719,0-8.533,3.814-8.533,8.533v8.533h-25.6v-8.533c0-4.719-3.814-8.533-8.533-8.533    c-4.719,0-8.533,3.814-8.533,8.533v8.533h-25.6v-8.533c0-4.719-3.814-8.533-8.533-8.533s-8.533,3.814-8.533,8.533v8.533h-25.6    v-8.533c0-4.719-3.814-8.533-8.533-8.533s-8.533,3.814-8.533,8.533v8.533h-25.6v-8.533c0-4.719-3.814-8.533-8.533-8.533    s-8.533,3.814-8.533,8.533v8.533h-25.6v-8.533c0-4.719-3.814-8.533-8.533-8.533s-8.533,3.814-8.533,8.533v8.533h-25.6v-8.533    c0-4.719-3.814-8.533-8.533-8.533s-8.533,3.814-8.533,8.533v8.533h-25.6v-8.533c0-4.719-3.814-8.533-8.533-8.533    s-8.533,3.814-8.533,8.533v8.533h-25.6v-8.533c0-4.719-3.814-8.533-8.533-8.533s-8.533,3.814-8.533,8.533v8.533h-25.6v-8.533    c0-4.719-3.814-8.533-8.533-8.533s-8.533,3.814-8.533,8.533v8.533H38.613l76.749-176.512c6.263,3.618,13.432,5.845,21.171,5.845    c10.846,0,20.642-4.19,28.177-10.88l41.941,50.33c-1.084,3.763-1.852,7.646-1.852,11.75c0,23.526,19.14,42.667,42.667,42.667    c23.526,0,42.667-19.14,42.667-42.667c0-9.242-3.029-17.749-8.047-24.747l54.946-117.743c6.306,3.686,13.551,5.956,21.367,5.956    c8.405,0,16.205-2.526,22.818-6.741l55.782,71.714c0.188,0.247,0.469,0.333,0.683,0.555c-6.775,7.552-11.017,17.417-11.017,28.339    c0,23.526,19.14,42.667,42.667,42.667c23.526,0,42.667-19.14,42.667-42.667s-19.14-42.667-42.667-42.667    c-6.596,0-12.774,1.63-18.355,4.318c-0.196-0.333-0.265-0.708-0.512-1.024L393.6,203.247c4.693-6.861,7.467-15.13,7.467-24.047    c0-23.526-19.14-42.667-42.667-42.667c-23.526,0-42.667,19.14-42.667,42.667c0,9.242,3.029,17.749,8.047,24.747L268.834,321.69    c-6.306-3.686-13.551-5.956-21.367-5.956c-12.817,0-24.201,5.803-32.034,14.788l-38.204-45.858    c-0.666-0.785-1.468-1.357-2.304-1.843c2.662-5.564,4.275-11.716,4.275-18.287c0-23.526-19.14-42.667-42.667-42.667    c-23.526,0-42.667,19.14-42.667,42.667c0,9.276,3.055,17.809,8.107,24.815L34.133,445.38V384h8.533    c4.719,0,8.533-3.814,8.533-8.533s-3.814-8.533-8.533-8.533h-8.533v-25.6h8.533c4.719,0,8.533-3.814,8.533-8.533    s-3.814-8.533-8.533-8.533h-8.533v-25.6h8.533c4.719,0,8.533-3.814,8.533-8.533c0-4.719-3.814-8.533-8.533-8.533h-8.533V256h8.533    c4.719,0,8.533-3.814,8.533-8.533s-3.814-8.533-8.533-8.533h-8.533v-25.6h8.533c4.719,0,8.533-3.814,8.533-8.533    s-3.814-8.533-8.533-8.533h-8.533v-25.6h8.533c4.719,0,8.533-3.814,8.533-8.533s-3.814-8.533-8.533-8.533h-8.533V128h8.533    c4.719,0,8.533-3.814,8.533-8.533s-3.814-8.533-8.533-8.533h-8.533v-25.6h8.533c4.719,0,8.533-3.814,8.533-8.533    s-3.814-8.533-8.533-8.533h-8.533v-25.6h8.533c4.719,0,8.533-3.814,8.533-8.533S47.386,25.6,42.667,25.6h-8.533V8.533    C34.133,3.814,30.319,0,25.6,0s-8.533,3.814-8.533,8.533V25.6H8.533C3.814,25.6,0,29.414,0,34.133s3.814,8.533,8.533,8.533h8.533    v25.6H8.533C3.814,68.267,0,72.081,0,76.8s3.814,8.533,8.533,8.533h8.533v25.6H8.533c-4.719,0-8.533,3.814-8.533,8.533    S3.814,128,8.533,128h8.533v25.6H8.533C3.814,153.6,0,157.414,0,162.133s3.814,8.533,8.533,8.533h8.533v25.6H8.533    C3.814,196.267,0,200.081,0,204.8s3.814,8.533,8.533,8.533h8.533v25.6H8.533c-4.719,0-8.533,3.814-8.533,8.533    S3.814,256,8.533,256h8.533v25.6H8.533C3.814,281.6,0,285.414,0,290.133c0,4.719,3.814,8.533,8.533,8.533h8.533v25.6H8.533    C3.814,324.267,0,328.081,0,332.8s3.814,8.533,8.533,8.533h8.533v25.6H8.533c-4.719,0-8.533,3.814-8.533,8.533    S3.814,384,8.533,384h8.533v25.6H8.533C3.814,409.6,0,413.414,0,418.133s3.814,8.533,8.533,8.533h8.533v25.6H8.533    C3.814,452.267,0,456.081,0,460.8c0,4.719,3.814,8.533,8.533,8.533h8.533v16.964v0.034v0.068c0,0.282,0.137,0.529,0.162,0.802    c0.085,0.828,0.179,1.655,0.486,2.415c0.213,0.521,0.589,0.939,0.896,1.408c0.299,0.444,0.512,0.93,0.896,1.323    c0.597,0.614,1.331,1.05,2.091,1.459c0.222,0.12,0.367,0.316,0.606,0.418c0.009,0,0.017,0,0.026,0.009    c0.964,0.41,2.022,0.614,3.123,0.648c0.085,0,0.162,0.051,0.239,0.051H25.6h25.6v8.533c0,4.719,3.814,8.533,8.533,8.533    s8.533-3.814,8.533-8.533v-8.533h25.6v8.533c0,4.719,3.814,8.533,8.533,8.533s8.533-3.814,8.533-8.533v-8.533h25.6v8.533    c0,4.719,3.814,8.533,8.533,8.533s8.533-3.814,8.533-8.533v-8.533h25.6v8.533c0,4.719,3.814,8.533,8.533,8.533    s8.533-3.814,8.533-8.533v-8.533h25.6v8.533c0,4.719,3.814,8.533,8.533,8.533s8.533-3.814,8.533-8.533v-8.533h25.6v8.533    c0,4.719,3.814,8.533,8.533,8.533s8.533-3.814,8.533-8.533v-8.533h25.6v8.533c0,4.719,3.814,8.533,8.533,8.533    s8.533-3.814,8.533-8.533v-8.533h25.6v8.533c0,4.719,3.814,8.533,8.533,8.533s8.533-3.814,8.533-8.533v-8.533h25.6v8.533    c0,4.719,3.814,8.533,8.533,8.533c4.719,0,8.533-3.814,8.533-8.533v-8.533h25.6v8.533c0,4.719,3.814,8.533,8.533,8.533    c4.719,0,8.533-3.814,8.533-8.533v-8.533h25.6v8.533c0,4.719,3.814,8.533,8.533,8.533s8.533-3.814,8.533-8.533v-8.533h8.533    c4.719,0,8.533-3.814,8.533-8.533S508.186,477.867,503.467,477.867z" id="svg_3" fill="#ffffff" fill-opacity="1"/>
	</g>
</g><g id="svg_4">
</g><g id="svg_5">
</g><g id="svg_6">
</g><g id="svg_7">
</g><g id="svg_8">
</g><g id="svg_9">
</g><g id="svg_10">
</g><g id="svg_11">
</g><g id="svg_12">
</g><g id="svg_13">
</g><g id="svg_14">
</g><g id="svg_15">
</g><g id="svg_16">
</g><g id="svg_17">
</g><g id="svg_18">
</g></g></svg>